<svg xmlns="http://www.w3.org/2000/svg" width="24" height="24" viewBox="0 0 24 24" fill="none">
    <path fill-rule="evenodd" clip-rule="evenodd" d="M0.435974 2.18404C0 3.03969 0 4.15979 0 6.4V17.6C0 19.8402 0 20.9603 0.435974 21.816C0.819467 22.5686 1.43139 23.1805 2.18404 23.564C3.03969 24 4.15979 24 6.4 24H17.6C19.8402 24 20.9603 24 21.816 23.564C22.5686 23.1805 23.1805 22.5686 23.564 21.816C24 20.9603 24 19.8402 24 17.6V6.4C24 4.15979 24 3.03969 23.564 2.18404C23.1805 1.43139 22.5686 0.819467 21.816 0.435974C20.9603 0 19.8402 0 17.6 0H6.4C4.15979 0 3.03969 0 2.18404 0.435974C1.43139 0.819467 0.819467 1.43139 0.435974 2.18404ZM2.77566 7.21268C2.66667 7.42659 2.66667 7.70661 2.66667 8.26667V18.1333C2.66667 19.2534 2.66667 19.8135 2.88465 20.2413C3.0764 20.6176 3.38236 20.9236 3.75869 21.1153C4.18651 21.3333 4.74656 21.3333 5.86666 21.3333H18.1333C19.2534 21.3333 19.8135 21.3333 20.2413 21.1153C20.6176 20.9236 20.9236 20.6176 21.1153 20.2413C21.3333 19.8135 21.3333 19.2534 21.3333 18.1333V8.26667C21.3333 7.70661 21.3333 7.42659 21.2243 7.21268C21.1285 7.02451 20.9755 6.87153 20.7873 6.77566C20.5734 6.66667 20.2934 6.66667 19.7333 6.66667H4.26667C3.70661 6.66667 3.42659 6.66667 3.21268 6.77566C3.02451 6.87153 2.87153 7.02451 2.77566 7.21268Z" fill="white"/>
</svg>