<svg xmlns="http://www.w3.org/2000/svg" width="24" height="24" viewBox="0 0 24 24" fill="none">
    <path d="M6.23372 3.37612e-07H7.59633C8.14355 3.37612e-07 8.58716 0.443609 8.58716 0.990827C8.58716 1.53804 8.14355 1.98165 7.59633 1.98165H6.27523C5.33402 1.98165 4.68771 1.98242 4.18667 2.02336C3.69721 2.06335 3.43428 2.13668 3.24399 2.23364C2.80897 2.45529 2.45529 2.80897 2.23364 3.24399C2.13668 3.43428 2.06335 3.69721 2.02336 4.18667C1.98242 4.68771 1.98165 5.33402 1.98165 6.27523V7.59633C1.98165 8.14355 1.53804 8.58716 0.990827 8.58716C0.443609 8.58716 3.37611e-07 8.14355 3.37611e-07 7.59633V6.23372C-1.08179e-05 5.34413 -1.99443e-05 4.61658 0.048289 4.0253C0.0982925 3.41329 0.204952 2.86054 0.467973 2.34434C0.879613 1.53645 1.53645 0.879613 2.34434 0.467973C2.86054 0.204952 3.41329 0.0982925 4.0253 0.048289C4.61658 -1.99443e-05 5.34413 -1.08179e-05 6.23372 3.37612e-07Z" fill="white"/>
    <path d="M6.23372 24H7.59633C8.14355 24 8.58716 23.5564 8.58716 23.0092C8.58716 22.462 8.14355 22.0183 7.59633 22.0183H6.27523C5.33402 22.0183 4.68771 22.0176 4.18667 21.9766C3.69721 21.9367 3.43428 21.8633 3.24399 21.7664C2.80897 21.5447 2.45529 21.191 2.23364 20.756C2.13668 20.5657 2.06335 20.3028 2.02336 19.8133C1.98242 19.3123 1.98165 18.666 1.98165 17.7248V16.4037C1.98165 15.8565 1.53804 15.4128 0.990827 15.4128C0.443609 15.4128 3.37611e-07 15.8565 3.37611e-07 16.4037V17.7663C-1.08179e-05 18.6559 -1.99443e-05 19.3834 0.048289 19.9747C0.0982925 20.5867 0.204952 21.1395 0.467973 21.6557C0.879613 22.4636 1.53645 23.1204 2.34434 23.532C2.86054 23.795 3.41329 23.9017 4.0253 23.9517C4.61658 24 5.34412 24 6.23372 24Z" fill="white"/>
    <path d="M17.7663 3.37612e-07C18.6559 -1.08179e-05 19.3834 -1.99443e-05 19.9747 0.048289C20.5867 0.0982925 21.1395 0.204952 21.6557 0.467973C22.4636 0.879613 23.1204 1.53645 23.532 2.34434C23.795 2.86054 23.9017 3.41329 23.9517 4.0253C24 4.61658 24 5.34412 24 6.23372V7.59633C24 8.14355 23.5564 8.58716 23.0092 8.58716C22.462 8.58716 22.0183 8.14355 22.0183 7.59633V6.27523C22.0183 5.33402 22.0176 4.68771 21.9766 4.18667C21.9367 3.69721 21.8633 3.43428 21.7664 3.24399C21.5447 2.80897 21.191 2.45529 20.756 2.23364C20.5657 2.13668 20.3028 2.06335 19.8133 2.02336C19.3123 1.98242 18.666 1.98165 17.7248 1.98165H16.4037C15.8565 1.98165 15.4128 1.53804 15.4128 0.990827C15.4128 0.443609 15.8565 3.37612e-07 16.4037 3.37612e-07H17.7663Z" fill="white"/>
    <path d="M17.7663 24H16.4037C15.8565 24 15.4128 23.5564 15.4128 23.0092C15.4128 22.462 15.8565 22.0183 16.4037 22.0183H17.7248C18.666 22.0183 19.3123 22.0176 19.8133 21.9766C20.3028 21.9367 20.5657 21.8633 20.756 21.7664C21.191 21.5447 21.5447 21.191 21.7664 20.756C21.8633 20.5657 21.9367 20.3028 21.9766 19.8133C22.0176 19.3123 22.0183 18.666 22.0183 17.7248V16.4037C22.0183 15.8565 22.462 15.4128 23.0092 15.4128C23.5564 15.4128 24 15.8565 24 16.4037V17.7663C24 18.6559 24 19.3834 23.9517 19.9747C23.9017 20.5867 23.795 21.1395 23.532 21.6557C23.1204 22.4636 22.4636 23.1204 21.6557 23.532C21.1395 23.795 20.5867 23.9017 19.9747 23.9517C19.3834 24 18.6559 24 17.7663 24Z" fill="white"/>
    <path d="M5.39493 11.0096C4.84771 11.0096 4.4041 11.4532 4.4041 12.0004C4.4041 12.5476 4.84771 12.9913 5.39493 12.9913H18.6059C19.1532 12.9913 19.5968 12.5476 19.5968 12.0004C19.5968 11.4532 19.1532 11.0096 18.6059 11.0096H5.39493Z" fill="white"/>
</svg>