<svg xmlns="http://www.w3.org/2000/svg" width="24" height="24" viewBox="0 0 24 24" fill="none">
    <path d="M3.86441 15.5795C3.86441 15.103 3.86441 14.8647 3.94182 14.6768C4.04503 14.4262 4.24301 14.2271 4.49219 14.1233C4.67907 14.0455 4.91599 14.0455 5.38983 14.0455H6.40678C6.88062 14.0455 7.11754 14.0455 7.30442 14.1233C7.55361 14.2271 7.75158 14.4262 7.85479 14.6768C7.9322 14.8647 7.9322 15.103 7.9322 15.5795C7.9322 16.0561 7.9322 16.2943 7.85479 16.4823C7.75158 16.7329 7.55361 16.932 7.30442 17.0358C7.11754 17.1136 6.88062 17.1136 6.40678 17.1136H5.38983C4.91599 17.1136 4.67907 17.1136 4.49219 17.0358C4.24301 16.932 4.04503 16.7329 3.94182 16.4823C3.86441 16.2943 3.86441 16.0561 3.86441 15.5795Z" fill="white"/>
    <path fill-rule="evenodd" clip-rule="evenodd" d="M5.66034 3H18.3397C19.1646 2.99999 19.8331 2.99998 20.3751 3.04452C20.9342 3.09045 21.4299 3.18782 21.89 3.42359C22.6171 3.79619 23.2083 4.39073 23.5788 5.12199C23.8132 5.58472 23.9101 6.08325 23.9557 6.64547C24 7.19053 24 7.8628 24 8.69242V15.3076C24 16.1372 24 16.8095 23.9557 17.3545C23.9101 17.9168 23.8132 18.4153 23.5788 18.878C23.2083 19.6093 22.6171 20.2038 21.89 20.5764C21.4299 20.8122 20.9342 20.9095 20.3751 20.9555C19.8331 21 19.1647 21 18.3397 21H5.66026C4.83533 21 4.16685 21 3.62488 20.9555C3.06583 20.9095 2.57011 20.8122 2.11 20.5764C1.38287 20.2038 0.79169 19.6093 0.421196 18.878C0.186758 18.4153 0.0899438 17.9168 0.0442679 17.3545C-1.49151e-05 16.8095 -8.13587e-06 16.1372 2.29024e-07 15.3075V8.6925C-8.13587e-06 7.86285 -1.49151e-05 7.19055 0.0442679 6.64547C0.0899438 6.08325 0.186758 5.58472 0.421196 5.12199C0.79169 4.39073 1.38287 3.79619 2.11 3.42359C2.57011 3.18782 3.06583 3.09045 3.62488 3.04452C4.16687 2.99999 4.83537 2.99999 5.66034 3ZM3.75738 4.67545C3.29895 4.71312 3.0412 4.78296 2.8487 4.8816C2.42773 5.09731 2.08547 5.44152 1.87097 5.86489C1.77288 6.05848 1.70344 6.31769 1.66598 6.77872C1.637 7.13552 1.62962 7.56975 1.62775 8.13925C1.69257 8.12253 1.76051 8.11364 1.83051 8.11364H22.1695C22.2395 8.11364 22.3074 8.12253 22.3722 8.13925C22.3704 7.56975 22.363 7.13552 22.334 6.77872C22.2966 6.31769 22.2271 6.05848 22.129 5.86489C21.9145 5.44152 21.5723 5.09731 21.1513 4.8816C20.9588 4.78296 20.7011 4.71312 20.2426 4.67545C19.7747 4.637 19.1728 4.63636 18.3051 4.63636H5.69492C4.82717 4.63636 4.2253 4.637 3.75738 4.67545ZM22.3729 9.72422C22.3079 9.74105 22.2397 9.75 22.1695 9.75H1.83051C1.76028 9.75 1.69213 9.74105 1.62712 9.72422V15.2727C1.62712 16.1454 1.62775 16.7507 1.66598 17.2213C1.70344 17.6823 1.77288 17.9415 1.87097 18.1351C2.08547 18.5585 2.42773 18.9027 2.8487 19.1184C3.0412 19.217 3.29895 19.2869 3.75738 19.3246C4.2253 19.363 4.82717 19.3636 5.69491 19.3636H18.3051C19.1728 19.3636 19.7747 19.363 20.2426 19.3246C20.7011 19.2869 20.9588 19.217 21.1513 19.1184C21.5723 18.9027 21.9145 18.5585 22.129 18.1351C22.2271 17.9415 22.2966 17.6823 22.334 17.2213C22.3722 16.7507 22.3729 16.1454 22.3729 15.2727V9.72422Z" fill="white"/>
</svg>