<svg xmlns="http://www.w3.org/2000/svg" xmlns:xlink="http://www.w3.org/1999/xlink" xmlns:svgjs="http://svgjs.dev/svgjs" version="1.1" width="700" height="700" preserveAspectRatio="none" viewBox="0 0 700 700"><g mask="url(&quot;#SvgjsMask1075&quot;)" fill="none"><path d="M175 362.84L234.76 397.34L234.76 466.34L175 500.84L115.25 466.34L115.25 397.34zM234.76 673.34L294.52 707.84L294.52 776.84L234.76 811.34L175 776.84L175 707.84zM294.52 362.84L354.28 397.34L354.28 466.34L294.52 500.84L234.76 466.34L234.76 397.34zM354.28 673.34L414.03 707.84L414.03 776.84L354.28 811.34L294.52 776.84L294.52 707.84zM414.03 -51.16L473.79 -16.66L473.79 52.34L414.03 86.84L354.28 52.34L354.28 -16.66zM414.03 155.84L473.79 190.34L473.79 259.34L414.03 293.84L354.28 259.34L354.28 190.34zM533.55 362.84L593.31 397.34L593.31 466.34L533.55 500.84L473.79 466.34L473.79 397.34zM593.31 466.34L653.06 500.84L653.06 569.84L593.31 604.34L533.55 569.84L533.55 500.84zM533.55 569.84L593.31 604.34L593.31 673.34L533.55 707.84L473.79 673.34L473.79 604.34zM653.06 362.84L712.82 397.34L712.82 466.34L653.06 500.84L593.31 466.34L593.31 397.34z" stroke="rgba(255, 251, 251, 0.5)" stroke-width="2"/><path d="M168.1 362.84 a6.9 6.9 0 1 0 13.8 0 a6.9 6.9 0 1 0 -13.8 0zM227.86 397.34 a6.9 6.9 0 1 0 13.8 0 a6.9 6.9 0 1 0 -13.8 0zM227.86 466.34 a6.9 6.9 0 1 0 13.8 0 a6.9 6.9 0 1 0 -13.8 0zM168.1 500.84 a6.9 6.9 0 1 0 13.8 0 a6.9 6.9 0 1 0 -13.8 0zM108.35 466.34 a6.9 6.9 0 1 0 13.8 0 a6.9 6.9 0 1 0 -13.8 0zM108.35 397.34 a6.9 6.9 0 1 0 13.8 0 a6.9 6.9 0 1 0 -13.8 0zM227.86 673.34 a6.9 6.9 0 1 0 13.8 0 a6.9 6.9 0 1 0 -13.8 0zM287.62 707.84 a6.9 6.9 0 1 0 13.8 0 a6.9 6.9 0 1 0 -13.8 0zM287.62 776.84 a6.9 6.9 0 1 0 13.8 0 a6.9 6.9 0 1 0 -13.8 0zM227.86 811.34 a6.9 6.9 0 1 0 13.8 0 a6.9 6.9 0 1 0 -13.8 0zM168.1 776.84 a6.9 6.9 0 1 0 13.8 0 a6.9 6.9 0 1 0 -13.8 0zM168.1 707.84 a6.9 6.9 0 1 0 13.8 0 a6.9 6.9 0 1 0 -13.8 0zM287.62 362.84 a6.9 6.9 0 1 0 13.8 0 a6.9 6.9 0 1 0 -13.8 0zM347.38 397.34 a6.9 6.9 0 1 0 13.8 0 a6.9 6.9 0 1 0 -13.8 0zM347.38 466.34 a6.9 6.9 0 1 0 13.8 0 a6.9 6.9 0 1 0 -13.8 0zM287.62 500.84 a6.9 6.9 0 1 0 13.8 0 a6.9 6.9 0 1 0 -13.8 0zM347.38 673.34 a6.9 6.9 0 1 0 13.8 0 a6.9 6.9 0 1 0 -13.8 0zM407.13 707.84 a6.9 6.9 0 1 0 13.8 0 a6.9 6.9 0 1 0 -13.8 0zM407.13 776.84 a6.9 6.9 0 1 0 13.8 0 a6.9 6.9 0 1 0 -13.8 0zM347.38 811.34 a6.9 6.9 0 1 0 13.8 0 a6.9 6.9 0 1 0 -13.8 0zM407.13 -51.16 a6.9 6.9 0 1 0 13.8 0 a6.9 6.9 0 1 0 -13.8 0zM466.89 -16.66 a6.9 6.9 0 1 0 13.8 0 a6.9 6.9 0 1 0 -13.8 0zM466.89 52.34 a6.9 6.9 0 1 0 13.8 0 a6.9 6.9 0 1 0 -13.8 0zM407.13 86.84 a6.9 6.9 0 1 0 13.8 0 a6.9 6.9 0 1 0 -13.8 0zM347.38 52.34 a6.9 6.9 0 1 0 13.8 0 a6.9 6.9 0 1 0 -13.8 0zM347.38 -16.66 a6.9 6.9 0 1 0 13.8 0 a6.9 6.9 0 1 0 -13.8 0zM407.13 155.84 a6.9 6.9 0 1 0 13.8 0 a6.9 6.9 0 1 0 -13.8 0zM466.89 190.34 a6.9 6.9 0 1 0 13.8 0 a6.9 6.9 0 1 0 -13.8 0zM466.89 259.34 a6.9 6.9 0 1 0 13.8 0 a6.9 6.9 0 1 0 -13.8 0zM407.13 293.84 a6.9 6.9 0 1 0 13.8 0 a6.9 6.9 0 1 0 -13.8 0zM347.38 259.34 a6.9 6.9 0 1 0 13.8 0 a6.9 6.9 0 1 0 -13.8 0zM347.38 190.34 a6.9 6.9 0 1 0 13.8 0 a6.9 6.9 0 1 0 -13.8 0zM526.65 362.84 a6.9 6.9 0 1 0 13.8 0 a6.9 6.9 0 1 0 -13.8 0zM586.41 397.34 a6.9 6.9 0 1 0 13.8 0 a6.9 6.9 0 1 0 -13.8 0zM586.41 466.34 a6.9 6.9 0 1 0 13.8 0 a6.9 6.9 0 1 0 -13.8 0zM526.65 500.84 a6.9 6.9 0 1 0 13.8 0 a6.9 6.9 0 1 0 -13.8 0zM466.89 466.34 a6.9 6.9 0 1 0 13.8 0 a6.9 6.9 0 1 0 -13.8 0zM466.89 397.34 a6.9 6.9 0 1 0 13.8 0 a6.9 6.9 0 1 0 -13.8 0zM646.16 500.84 a6.9 6.9 0 1 0 13.8 0 a6.9 6.9 0 1 0 -13.8 0zM646.16 569.84 a6.9 6.9 0 1 0 13.8 0 a6.9 6.9 0 1 0 -13.8 0zM586.41 604.34 a6.9 6.9 0 1 0 13.8 0 a6.9 6.9 0 1 0 -13.8 0zM526.65 569.84 a6.9 6.9 0 1 0 13.8 0 a6.9 6.9 0 1 0 -13.8 0zM586.41 673.34 a6.9 6.9 0 1 0 13.8 0 a6.9 6.9 0 1 0 -13.8 0zM526.65 707.84 a6.9 6.9 0 1 0 13.8 0 a6.9 6.9 0 1 0 -13.8 0zM466.89 673.34 a6.9 6.9 0 1 0 13.8 0 a6.9 6.9 0 1 0 -13.8 0zM466.89 604.34 a6.9 6.9 0 1 0 13.8 0 a6.9 6.9 0 1 0 -13.8 0zM646.16 362.84 a6.9 6.9 0 1 0 13.8 0 a6.9 6.9 0 1 0 -13.8 0zM705.92 397.34 a6.9 6.9 0 1 0 13.8 0 a6.9 6.9 0 1 0 -13.8 0zM705.92 466.34 a6.9 6.9 0 1 0 13.8 0 a6.9 6.9 0 1 0 -13.8 0z" fill="rgba(255, 251, 251, 0.5)"/><path d="M34.85 -38.61L85.95 -9.11L85.95 49.89L34.85 79.39L-16.25 49.89L-16.25 -9.11zM85.95 226.89L137.04 256.39L137.04 315.39L85.95 344.89L34.85 315.39L34.85 256.39zM34.85 315.39L85.95 344.89L85.95 403.89L34.85 433.39L-16.25 403.89L-16.25 344.89zM137.04 138.39L188.14 167.89L188.14 226.89L137.04 256.39L85.95 226.89L85.95 167.89zM137.04 315.39L188.14 344.89L188.14 403.89L137.04 433.39L85.95 403.89L85.95 344.89zM188.14 403.89L239.24 433.39L239.24 492.39L188.14 521.89L137.04 492.39L137.04 433.39zM137.04 492.39L188.14 521.89L188.14 580.89L137.04 610.39L85.95 580.89L85.95 521.89zM290.33 403.89L341.43 433.39L341.43 492.39L290.33 521.89L239.24 492.39L239.24 433.39zM392.53 403.89L443.63 433.39L443.63 492.39L392.53 521.89L341.43 492.39L341.43 433.39zM392.53 580.89L443.63 610.39L443.63 669.39L392.53 698.89L341.43 669.39L341.43 610.39zM443.63 138.39L494.72 167.89L494.72 226.89L443.63 256.39L392.53 226.89L392.53 167.89zM494.72 226.89L545.82 256.39L545.82 315.39L494.72 344.89L443.63 315.39L443.63 256.39zM443.63 315.39L494.72 344.89L494.72 403.89L443.63 433.39L392.53 403.89L392.53 344.89zM545.82 -38.61L596.92 -9.11L596.92 49.89L545.82 79.39L494.72 49.89L494.72 -9.11zM545.82 315.39L596.92 344.89L596.92 403.89L545.82 433.39L494.72 403.89L494.72 344.89zM545.82 492.39L596.92 521.89L596.92 580.89L545.82 610.39L494.72 580.89L494.72 521.89zM545.82 669.39L596.92 698.89L596.92 757.89L545.82 787.39L494.72 757.89L494.72 698.89zM648.01 492.39L699.11 521.89L699.11 580.89L648.01 610.39L596.92 580.89L596.92 521.89zM699.11 580.89L750.21 610.39L750.21 669.39L699.11 698.89L648.01 669.39L648.01 610.39z" stroke="rgba(240, 233, 233, 0.69)" stroke-width="2"/></g><defs><mask id="SvgjsMask1075"><rect width="700" height="700" fill="#ffffff"/></mask></defs></svg>